<svg width="90" height="20" viewBox="0 0 90 20" fill="none" xmlns="http://www.w3.org/2000/svg">
<path d="M78.1412 18.8221L78.0438 16.1538C79.6266 17.6683 81.599 18.5817 83.5714 18.5817C86.4205 18.5817 87.7354 16.5385 87.8084 14.8798C87.8815 13.1971 86.3961 11.6827 84.1071 10.5529C80.3571 8.70192 78.4334 7.09135 78.4334 4.51923C78.4334 2.13942 80.3815 0 83.8393 0C86.4205 0 88.6851 1.10577 88.6851 1.10577V3.53365C88.1981 2.76442 86.0795 1.27404 83.7906 1.27404C81.3312 1.27404 80.4789 3.14904 80.4789 4.35096C80.4789 6.03365 81.5747 6.99519 84.4237 8.46154C87.5893 10.0962 90 11.7067 90 14.7356C90 17.5721 87.9789 20 83.4984 20C81.4286 20 79.651 19.5192 78.1412 18.8221ZM56.664 2.09135L56.25 3.65385L68.4984 19.6154H69.8864V6.80288C69.8864 4.47115 70.0081 2.09135 70.4221 0.384615H67.7435C68.1575 2.09135 68.3036 4.47115 68.3036 6.80288V15.8894L68.474 15.625L56.7614 0.384615H55.0568V13.1971C55.0568 15.5288 54.9351 17.9087 54.5211 19.6154H57.1997C56.7857 17.9087 56.6396 15.5288 56.6396 13.1971L56.664 2.09135ZM16.3393 5.21635L9.375 19.6154H9.08279L2.11851 5.50481V13.1971C2.11851 15.5288 2.26461 17.9087 2.67857 19.6154H0C0.413961 17.9087 0.535714 15.5288 0.535714 13.1971V0.384615H2.24026L9.69156 15.2404L16.8263 0.384615H18.5308V13.1971C18.5308 15.5288 18.6526 17.9087 19.0666 19.6154H15.7792C16.1932 17.9087 16.3393 15.5288 16.3393 13.1971V5.21635ZM36.6964 19.976C42.7597 19.976 47.6055 15.5048 47.6055 10.024C47.6055 4.54327 42.7597 0 36.6964 0C30.6331 0 25.8117 4.47115 25.8117 10.024C25.8117 15.5769 30.6818 19.976 36.6964 19.976ZM36.6964 18.726C31.8019 18.726 28.3685 14.8077 28.3685 10.024C28.3685 5.24038 31.8019 1.27404 36.6964 1.27404C41.5909 1.27404 45.2922 5.14423 45.2922 10.024C45.2922 14.9038 41.6153 18.726 36.6964 18.726Z" fill="white"/>
</svg>
